<svg width="110" height="110" viewBox="0 0 110 110" fill="none" xmlns="http://www.w3.org/2000/svg">
<g filter="url(#filter0_d_5_1259)">
<path d="M22 36C22 22.7452 32.7452 12 46 12H64C77.2548 12 88 22.7452 88 36V54C88 67.2548 77.2548 78 64 78H46C32.7452 78 22 67.2548 22 54V36Z" fill="url(#paint0_linear_5_1259)"/>
</g>
<path d="M72 41.9332V51.523C71.9992 52.2164 71.7234 52.8812 71.2331 53.3715C70.7428 53.8618 70.078 54.1376 69.3846 54.1383H68.5128V57.6255C68.5127 57.7912 68.4654 57.9535 68.3765 58.0933C68.2875 58.2331 68.1606 58.3447 68.0106 58.415C67.8605 58.4853 67.6936 58.5114 67.5292 58.4902C67.3649 58.4691 67.2099 58.4016 67.0826 58.2956L62.0944 54.1383H53.6923C52.9989 54.1376 52.3341 53.8618 51.8438 53.3715C51.3535 52.8812 51.0777 52.2164 51.0769 51.523V50.6512H59.7949C60.9505 50.6498 62.0585 50.1901 62.8756 49.3729C63.6928 48.5558 64.1525 47.4478 64.1538 46.2922V39.3178H69.3846C70.078 39.3186 70.7428 39.5944 71.2331 40.0847C71.7234 40.575 71.9992 41.2398 72 41.9332ZM59.7949 48.9076H47.9908L43.0205 54.705C42.9046 54.8401 42.7501 54.9364 42.5778 54.9811C42.4055 55.0258 42.2237 55.0166 42.0568 54.9549C41.8898 54.8932 41.7458 54.7819 41.6439 54.6359C41.5421 54.49 41.4874 54.3163 41.4872 54.1383V48.9076H40.6154C39.922 48.9068 39.2572 48.631 38.7669 48.1407C38.2766 47.6504 38.0008 46.9856 38 46.2922V34.0871C38.0008 33.3937 38.2766 32.7289 38.7669 32.2385C39.2572 31.7482 39.922 31.4724 40.6154 31.4717H59.7949C60.4883 31.4724 61.1531 31.7482 61.6434 32.2385C62.1337 32.7289 62.4095 33.3937 62.4103 34.0871V46.2922C62.4095 46.9856 62.1337 47.6504 61.6434 48.1407C61.1531 48.631 60.4883 48.9068 59.7949 48.9076ZM57.1795 41.9332C57.1795 41.702 57.0876 41.4803 56.9241 41.3168C56.7607 41.1533 56.5389 41.0614 56.3077 41.0614H44.1026C43.8713 41.0614 43.6496 41.1533 43.4861 41.3168C43.3226 41.4803 43.2308 41.702 43.2308 41.9332C43.2308 42.1644 43.3226 42.3862 43.4861 42.5497C43.6496 42.7132 43.8713 42.805 44.1026 42.805H56.3077C56.5389 42.805 56.7607 42.7132 56.9241 42.5497C57.0876 42.3862 57.1795 42.1644 57.1795 41.9332ZM57.1795 37.5742C57.1795 37.343 57.0876 37.1213 56.9241 36.9578C56.7607 36.7943 56.5389 36.7024 56.3077 36.7024H44.1026C43.8713 36.7024 43.6496 36.7943 43.4861 36.9578C43.3226 37.1213 43.2308 37.343 43.2308 37.5742C43.2308 37.8055 43.3226 38.0272 43.4861 38.1907C43.6496 38.3542 43.8713 38.446 44.1026 38.446H56.3077C56.5389 38.446 56.7607 38.3542 56.9241 38.1907C57.0876 38.0272 57.1795 37.8055 57.1795 37.5742Z" fill="white"/>
<defs>
<filter id="filter0_d_5_1259" x="0" y="0" width="110" height="110" filterUnits="userSpaceOnUse" color-interpolation-filters="sRGB">
<feFlood flood-opacity="0" result="BackgroundImageFix"/>
<feColorMatrix in="SourceAlpha" type="matrix" values="0 0 0 0 0 0 0 0 0 0 0 0 0 0 0 0 0 0 127 0" result="hardAlpha"/>
<feOffset dy="10"/>
<feGaussianBlur stdDeviation="11"/>
<feColorMatrix type="matrix" values="0 0 0 0 0.97947 0 0 0 0 0.730307 0 0 0 0 0.328531 0 0 0 0.3 0"/>
<feBlend mode="normal" in2="BackgroundImageFix" result="effect1_dropShadow_5_1259"/>
<feBlend mode="normal" in="SourceGraphic" in2="effect1_dropShadow_5_1259" result="shape"/>
</filter>
<linearGradient id="paint0_linear_5_1259" x1="35.5" y1="12" x2="67" y2="78" gradientUnits="userSpaceOnUse">
<stop stop-color="#FFD085"/>
<stop offset="1" stop-color="#FFAF2E"/>
</linearGradient>
</defs>
</svg>
